<svg xmlns="http://www.w3.org/2000/svg" viewBox="0 0 499.78 141.77"><defs><style>.cls-1{fill:#f68f1d;}</style></defs><g id="Layer_2" data-name="Layer 2"><g id="Layer_1-2" data-name="Layer 1"><path class="cls-1" d="M499.78,101.84c-3.2,8-10.11,11.56-17.45,14.91-18.59,8.46-37,17.36-57.22,21.43-.16,0-.32.1-.48.13-10.92,2.31-14.23,1.09-17.2-6.36-3.83-9.61-1.48-18.36,6.23-23.19,11.66-7.3,24.53-11.7,37.55-15.77,1.69-.53,3.38-1,5.28-1.62-.48-.59-.7-1.1-1.09-1.29-36-17.83-72.27-35.45-112-43.65C218.17,20.56,107.79,48.87,14.34,137.72c-1.44,1.36-2.9,2.7-4.34,4.05H6c-4.36-.89-5.17-4.44-6-8v-7c3.54-13.18,11.76-23.71,20-34.09C35.74,72.8,56.05,58.35,78.22,46.46,114,27.28,151.61,13.35,191.5,5.64,206.21,2.8,221,.66,236.05.52A2.47,2.47,0,0,0,237.9,0h50c6.87,1.2,13.85.71,20.75,1.47C340.06,5,370.43,12.84,400.08,23.65a330.94,330.94,0,0,1,52,24.67c-2.49-8.06-6.34-14.84-9-22.08-2.75-7.53-2.71-14.83,2.72-21.6,3.9-4.86,12.53-5.11,16.34.54,4.65,6.91,8.88,14.08,12.82,21.38C484.34,44,492.49,62,497.84,81.18c1,3.53.8,7.21,1.94,10.67Z"/></g></g></svg>