<svg xmlns="http://www.w3.org/2000/svg" viewBox="0 0 499.58 141.61"><defs><style>.cls-1{fill:#f68f1d;}</style></defs><g id="Layer_2" data-name="Layer 2"><g id="Layer_1-2" data-name="Layer 1"><path class="cls-1" d="M10,0C28.14,17.87,47.46,34.31,68.87,48.23c45,29.27,94.25,46.94,147.53,53.59C292,111.25,363.21,97,431,63.34c8.39-4.16,16.84-8.22,26.11-12.73-11.7-3.7-22.51-6.8-32.62-11.74-3.87-1.89-7.53-4.2-11.4-6.1-10.83-5.31-8.35-22.89-2.42-28.35,2.26-2.08,4.82-2.45,7.85-2,19.8,3,37.91,10.76,55.87,19,3.32,1.53,6.52,3.36,9.94,4.61,7.36,2.69,12.8,7.18,15.25,14.83v10c-6,30.28-20.1,57.07-35.94,83.12-2.94,4.84-6.74,7.73-12.72,6.52-3.83-.78-8.67-6.39-9.31-11.41s-.58-10.16,1.74-15.1a189.79,189.79,0,0,0,8.53-20.34c-4,1.65-7.22,3.89-10.62,5.69-38.59,20.5-79.8,32.91-122.86,39.66-10.17,1.6-20.46,1.33-30.64,2.61h-50c-9.85-1.27-19.81-1.24-29.65-2.74A390.3,390.3,0,0,1,107.81,109.6C86.17,100,65.17,89.25,46.32,74.71a162.08,162.08,0,0,1-44-52.23C1,20.08,1,17.41,0,15V8C.83,4.44,1.64.89,6,0Z"/></g></g></svg>