<svg width="32" height="32" viewBox="0 0 32 32" fill="none" xmlns="http://www.w3.org/2000/svg">
<g clip-path="url(#clip0_11_32369)">
<path d="M16 20C18.7614 20 21 17.7614 21 15C21 12.2386 18.7614 10 16 10C13.2386 10 11 12.2386 11 15C11 17.7614 13.2386 20 16 20Z" stroke="#0C1830" stroke-width="1.5" stroke-linecap="round" stroke-linejoin="round"/>
<path d="M7.97852 24.9248C8.7309 23.4428 9.87896 22.1981 11.2954 21.3287C12.7119 20.4592 14.3415 19.999 16.0035 19.999C17.6655 19.999 19.2951 20.4592 20.7116 21.3287C22.1281 22.1981 23.2761 23.4428 24.0285 24.9248" stroke="#0C1830" stroke-width="1.5" stroke-linecap="round" stroke-linejoin="round"/>
<path d="M16 28C22.6274 28 28 22.6274 28 16C28 9.37258 22.6274 4 16 4C9.37258 4 4 9.37258 4 16C4 22.6274 9.37258 28 16 28Z" stroke="#f68f1d" stroke-width="1.5" stroke-linecap="round" stroke-linejoin="round"/>
<path d="M16 28C22.6274 28 28 22.6274 28 16C28 9.37258 22.6274 4 16 4C9.37258 4 4 9.37258 4 16C4 22.6274 9.37258 28 16 28Z" stroke="#f68f1d" stroke-width="1.5" stroke-linecap="round" stroke-linejoin="round"/>
</g>
<defs>
<clipPath id="clip0_11_32369">
<rect width="32" height="32" fill="white"/>
</clipPath>
</defs>
</svg>
