<svg width="60" height="60" viewBox="0 0 60 60" fill="none" xmlns="http://www.w3.org/2000/svg">
<path d="M38.8057 49.4665C37.0104 51.7141 33.6934 51.9871 31.5549 50.0632L13.6569 33.9616C11.6889 32.1912 11.4419 29.1936 13.0935 27.1249L27.4479 9.14552C29.2433 6.89674 32.5615 6.62372 34.7003 8.54882L52.5982 24.6585C54.5657 26.4294 54.812 29.427 53.1599 31.4953L38.8057 49.4665Z" fill="#f68f1d"/>
<path d="M31.6532 51.3717C29.8579 53.6194 26.5409 53.8924 24.4024 51.9684L6.50454 35.8669C4.53655 34.0964 4.28955 31.0989 5.94119 29.0301L20.2955 11.0508C22.0909 8.80202 25.4092 8.52901 27.548 10.4541L45.4457 26.5638C47.4132 28.3347 47.6595 31.3322 46.0075 33.4006L31.6532 51.3717Z" stroke="#0C1830" stroke-width="2.5" stroke-miterlimit="10"/>
</svg>
