<svg xmlns="http://www.w3.org/2000/svg" viewBox="0 0 85.08 84.82"><defs><style>.cls-1{fill:#f68f1d;}.cls-2{fill:#fefdfd;}.cls-3{fill:#fcf3f4;}.cls-4{fill:#fefcfc;}</style></defs><g id="Layer_2" data-name="Layer 2"><g id="Layer_1-2" data-name="Layer 1"><path d="M48.58,46.22c5.89-6.87,12.86-10.38,21.83-7.86C78.72,40.7,83.5,46.45,84.74,54.8c.62,4.2.2,8.55.2,12.83,0,1.87-.87,3.32-2.83,3.37-2.27,0-3-1.58-3.06-3.64,0-3.29.07-6.59,0-9.88-.22-6.71-4.08-11.7-10.29-13.47-5.83-1.66-11.77.64-15.26,6.24a11,11,0,0,1-4.22,3.83c-3,1.72-3.88.84-4.93-2.21a15.6,15.6,0,0,0-17.22-10.2A16.11,16.11,0,0,0,13.85,57.29c-.1,4.44,0,8.89,0,13.33,0,2.14-.31,4.24-2.89,4.31s-3.06-2-3-4.14c0-4.45,0-8.9,0-13.34A21.8,21.8,0,0,1,22.18,36.9c8.64-3.16,17.81-.67,24.11,6.56C47,44.32,47.74,45.2,48.58,46.22Z"/><path d="M0,28.62A14.4,14.4,0,0,1,10.51,14.7,6.1,6.1,0,0,0,15,10.34a15.49,15.49,0,0,1,21-9,15.72,15.72,0,0,1,7.77,21.5,15.44,15.44,0,0,1-22.24,6.3c-2.62-1.68-3.62-1.49-5.25,1C14.36,33,11.31,34.44,8,35.24,2.69,36.56-.15,34.18,0,28.62Z"/><path class="cls-1" d="M21.74,71.16c0-3.12-.14-6.25,0-9.37.29-5,4.18-8.6,8.62-6.54,9.6,4.46,18.45,4.48,28.07,0,4.63-2.14,8.54,1.58,8.68,7,.15,6.07,0,12.16,0,18.24,0,2.13-.29,4.28-2.86,4.32-2.94,0-3.09-2.32-3.08-4.59,0-5.42-.11-10.85,0-16.27.08-2.77-.88-3.7-3.43-2.67-2.89,1.15-5.68,2.52-8.58,3.64-2.06.8-1.87,2.42-1.87,4.07,0,3.94,0,7.89,0,11.83,0,2.21-.61,4.14-3.19,4-2.23-.12-2.77-1.94-2.75-3.94,0-2.8.16-5.6,0-8.38-.18-2.36,1.29-5.33-1-7A26.55,26.55,0,0,0,29.66,61c-2.55-.45-2,1.59-2,2.92-.05,5.42,0,10.85,0,16.27,0,2.25-.1,4.69-3,4.64S21.72,82.26,21.73,80C21.75,77.08,21.74,74.12,21.74,71.16Z"/><path d="M65.28,33.59A14,14,0,0,1,51.39,19.84,13.82,13.82,0,0,1,79,19.69,14,14,0,0,1,65.28,33.59Z"/><path class="cls-2" d="M29.78,6a10,10,0,0,1,9.73,10.25,9.87,9.87,0,0,1-19.73-.78A10,10,0,0,1,29.78,6Z"/><path class="cls-3" d="M6,29.36c0-4.63,2-7.24,5.66-8.83,2-.86,2.43.09,2.05,1.71C12.83,26.12,10.45,28.56,6,29.36Z"/><path class="cls-4" d="M73.1,19.86a7.89,7.89,0,1,1-7.68-8A8,8,0,0,1,73.1,19.86Z"/></g></g></svg>