<svg xmlns="http://www.w3.org/2000/svg" viewBox="0 0 260.81 65.87"><defs><style>.cls-1{fill:#d32139;}.cls-2{fill:#fcb219;}.cls-3{fill:#f68f1d;}</style></defs><g id="Layer_2" data-name="Layer 2"><g id="Layer_1-2" data-name="Layer 1"><path class="cls-1" d="M0,58.47c.16,0,.22-.16.31-.25.79-.78,1.61-1.55,2.37-2.37,1.78-2,3.67-3.79,5.53-5.66-.09,0,0,0,0,0l-.06,0H.44v-13H28.5V65.87H15.35v-7.6a.09.09,0,0,0,0-.05c-.08,0,0,.08-.05,0-1.6,1.61-3.22,3.2-4.75,4.87-.78.86-1.64,1.65-2.45,2.48-.1.09-.24.15-.25.31H7.67l-.86-.8c-.71-.65-1.39-1.33-2.09-2-1.2-1.13-2.42-2.24-3.59-3.4A8.18,8.18,0,0,0,0,58.6Z"/><path class="cls-2" d="M65.87,7.4c-.16,0-.22.15-.31.24-.84.84-1.71,1.65-2.52,2.53-1.73,1.89-3.57,3.68-5.38,5.51.09,0,0,0,0,0a.07.07,0,0,0,0,0h7.7v13H37.36V0H50.52V7.59a.07.07,0,0,0,0,0c.08.05,0-.07,0,0,2.06-2.06,4.12-4.13,6.19-6.18.46-.46.85-1,1.26-1.47h.13c.21.42.66.58,1,.89,1.16,1.24,2.48,2.31,3.66,3.53,1,1,2.07,1.82,3,2.84h.07Z"/><path class="cls-3" d="M28.5,0c0,1.55-.07,3.11,0,4.66.23,4,.08,8,.12,12s0,8,0,12.06c-.64.11-24.95.16-28.07.05v-13H15.62v-.89c0-.91,0-1.82,0-2.74,0-.67-.2-1.32-.15-2s0-1.33,0-2V0Z"/><path class="cls-3" d="M37.39,37.1h28v13H50.38V65.72h-13Z"/><path d="M111.88,44.41h19.41V58H84.57l21.74-32.52H87.54V11.89h45.91Z"/><rect x="141.08" y="11.89" width="16.26" height="46.09"/><path d="M168.48,11.89h16.26v7.55a18.76,18.76,0,0,1,6.38-6.34,17.23,17.23,0,0,1,8.8-2.2h1.4a9.89,9.89,0,0,1,1.75.18V26.62a15.56,15.56,0,0,0-7-1.61q-5.66,0-8.49,3.37t-2.83,9.83V58H168.48Z"/><path d="M244.46,11.89h16.35V58H244.46V52.86a17.06,17.06,0,0,1-14.1,6.56,22.89,22.89,0,0,1-9.26-1.85,22.23,22.23,0,0,1-7.36-5.16,23.83,23.83,0,0,1-4.9-7.82,26.66,26.66,0,0,1-1.75-9.79,26.18,26.18,0,0,1,1.7-9.39,24.22,24.22,0,0,1,4.77-7.77,22.07,22.07,0,0,1,16.62-7.19,18.77,18.77,0,0,1,14.28,6ZM224,34.8a10.77,10.77,0,0,0,3,7.55,10,10,0,0,0,3.32,2.24,10.7,10.7,0,0,0,4.18.81,10.47,10.47,0,0,0,4.09-.81,10.08,10.08,0,0,0,3.32-2.24A11.63,11.63,0,0,0,244.15,39a9.82,9.82,0,0,0,.85-4,10.16,10.16,0,0,0-.85-4.09,11.43,11.43,0,0,0-2.25-3.37,10.08,10.08,0,0,0-3.32-2.24,10.47,10.47,0,0,0-4.09-.81,10.7,10.7,0,0,0-4.18.81A10,10,0,0,0,227,27.52a11.05,11.05,0,0,0-2.2,3.28A9.83,9.83,0,0,0,224,34.8Z"/></g></g></svg>