<svg xmlns="http://www.w3.org/2000/svg" viewBox="0 0 71.02 75.18"><defs><style>.cls-1{fill:#fefefe;}.cls-2{fill:#f68f1d;}.cls-3{fill:#fefcfc;}</style></defs><g id="Layer_2" data-name="Layer 2"><g id="Layer_1-2" data-name="Layer 1"><path d="M35.51,0H66.13c2.2,0,4.65-.12,4.85,2.8.18,2.57-1.81,3.24-4,3.14s-1.77,1.46-1.77,2.69c0,7.41,0,14.83-.06,22.24,0,2.11.58,2.92,2.76,2.81a2.74,2.74,0,0,1,3.12,3,2.81,2.81,0,0,1-3.34,2.82c-2.47-.22-2.53,1.18-2.52,3q.09,11.86,0,23.72c0,1.83,0,3.21,2.52,3,2.13-.15,3.59,1.09,3.32,3.29s-2.08,2.65-4.09,2.61c-3.29-.07-6.58,0-9.87,0H5.18c-2,0-4.16.34-5-2.09-.66-1.93.47-3.73,2.2-3.62,4,.26,3.55-2.11,3.53-4.65q-.09-10.86,0-21.74c0-2.15,0-3.89-3-3.58A2.61,2.61,0,0,1,.05,36.74a2.72,2.72,0,0,1,3.09-3c2.71.21,2.81-1.24,2.78-3.28-.07-7.08,0-14.16,0-21.25,0-1.55.52-3.45-2.24-3.25C1.57,6.07,0,5.1.07,2.85.22.27,2.26,0,4.4,0,14.77,0,25.14,0,35.51,0Z"/><path class="cls-1" d="M59.25,37.6c0,9.38-.11,18.75.06,28.13,0,2.81-.78,3.59-3.58,3.56q-20.2-.21-40.42,0c-2.84,0-3.56-.81-3.55-3.59q.18-28.12,0-56.25c0-2.81.78-3.6,3.57-3.57q20.22.21,40.43,0c2.83,0,3.6.82,3.55,3.6C59.14,18.85,59.25,28.23,59.25,37.6Z"/><path class="cls-2" d="M49.45,40.82c-.43,6.4-3,10.81-8.19,13.24a12.82,12.82,0,0,1-14.68-2.14c-4.29-3.76-6-8.61-4.25-14.22,2-6.42,5.9-11.66,10.42-16.49,1.38-1.48,3.17-2.22,4.76-.65C43.43,26.4,48.2,33,49.45,40.82Z"/><path class="cls-3" d="M43.47,41.58c-.36,3.36-1.78,5.76-4.77,7.13a7.28,7.28,0,0,1-8.25-1.21C28.18,45.57,27,43,27.94,40c1.55-4.66,3.43-11.43,7.54-11.69,3.83-.25,5.67,6.68,7.45,11A14.89,14.89,0,0,1,43.47,41.58Z"/></g></g></svg>