<?xml version="1.0" encoding="UTF-8"?>
<svg width="auto" height="20px" viewBox="0 0 586 30" version="1.1" xmlns="http://www.w3.org/2000/svg" xmlns:xlink="http://www.w3.org/1999/xlink">
    <title>a-graphic__top01-xl</title>
    <defs><style>.cls-1{fill:#1c1c1e;}.cls-1,.cls-2,.cls-3,.cls-4{fill-rule:evenodd;}.cls-2{fill:#d32139;}.cls-3{fill:#fff;}.cls-4{fill:#ed7004;}</style></defs><g id="Layer_2" data-name="Layer 2"><g id="Layer_1-2" data-name="Layer 1"><g id="High-Fidelity"><g id="XL-Desktop---Full-Service---v02"><g id="_.o-product-overview__fos-xl" data-name=".o-product-overview__fos-xl"><g id="_.m-features__grid1x2" data-name=".m-features__grid1x2"><g id="_.m-card__feature--large" data-name=".m-card__feature--large"><g id="_.a-graphic__top01-xl" data-name=".a-graphic__top01-xl"><path id="Rectangle-Copy-28" class="cls-1" d="M5,0H581a5,5,0,0,1,5,5V30H0V5A5,5,0,0,1,5,0Z"/><path id="Combined-Shape" class="cls-2" d="M60,30A30,30,0,0,1,90,0h60a30,30,0,0,1-30,30H60Z"/><path id="Combined-Shape-Copy-4" class="cls-3" d="M420,30A30,30,0,0,1,450,0h60a30,30,0,0,1-30,30H420Z"/><path id="Combined-Shape-Copy" class="cls-3" d="M150,0a30,30,0,0,0,30,30h60A30,30,0,0,0,210,0H150Z"/><path id="Combined-Shape-Copy-3" class="cls-4" d="M280,0a30,30,0,0,0,30,30H420A30,30,0,0,0,390,0H280Z"/><path id="Combined-Shape-Copy-5" class="cls-4" d="M510,0a30,30,0,0,0,30,30h46V5a5,5,0,0,0-5-5H510Z"/><path id="Oval" class="cls-4" d="M60,30A30,30,0,0,0,30,0H5A5,5,0,0,0,0,5V30Z"/><path id="Oval-2" data-name="Oval" class="cls-4" d="M22.64,0c0,16.57-5.07,30-11.32,30H1.89C.84,30,0,27.76,0,25V0Z"/><path id="Combined-Shape-Copy-5-2" data-name="Combined-Shape-Copy-5" class="cls-4" d="M539.44,30c0-16.57,8.23-30,18.38-30H586V25c0,2.76-1.37,5-3.06,5h-43.5Z"/></g></g></g></g></g></g></g></g>
</svg>