<svg xmlns="http://www.w3.org/2000/svg" viewBox="0 0 75.18 76.73"><defs><style>.cls-1{fill:#f68f1d;}.cls-2{fill:#fefefe;}</style></defs><g id="Layer_2" data-name="Layer 2"><g id="Layer_1-2" data-name="Layer 1"><path d="M44.34,76.72c.31-4.69,2.27-6.47,6.83-6,4.89.47,9.87,0,14.8.17,2.65.1,3.33-.79,3.3-3.35-.13-11.52-.09-23,0-34.58a9.69,9.69,0,0,0-3.9-8.12C58.21,19.22,51,13.76,43.91,8.12c-1.73-1.38-2.86-1.45-4.63,0-6.94,5.55-14,10.92-21.06,16.34-2,1.55-4,3.45-4,6,0,4.23-2.7,5.85-5.88,7.66C6.9,29.77,9.15,23.45,16,18.58c7.49-5.37,14.7-11.13,21.88-16.9,2.61-2.11,4.6-2.32,7.32-.13,7.69,6.19,15.57,12.14,23.39,18.16a16,16,0,0,1,6.64,13.62c-.11,12.18,0,24.36-.05,36.55,0,5.2-1.59,6.79-6.71,6.82C60.4,76.75,52.38,76.72,44.34,76.72Z"/><path class="cls-1" d="M19.42,76.72c-4.44,0-8.87,0-13.3,0-4.05,0-6.08-2-6.06-6v-1c-.29-20.46-.16-20.65,17-32.29,1.9-1.29,3.49-1.63,5.31-.1.87.74,1.82,1.39,2.72,2.12,17.51,14.19,14.08,7.72,14.47,31.06.07,4.33-2.1,6.28-6.37,6.22C28.62,76.67,24,76.72,19.42,76.72Z"/><path class="cls-2" d="M19.82,70.79c-.33,0-.66,0-1,0-4.19-.31-10.52,1.85-12.07-.89C4.66,66.16,6,60.4,6,55.51c0-2.95,2.77-3.88,4.59-5.36,9.13-7.4,9.07-7.24,18.46-.11,3.3,2.5,5.2,5.1,4.63,9.41a43.13,43.13,0,0,0,0,8.35c.15,2.38-.72,3.14-3.06,3C27,70.66,23.42,70.79,19.82,70.79Z"/></g></g></svg>