<svg xmlns="http://www.w3.org/2000/svg" viewBox="0 0 70.19 71.23"><defs><style>.cls-1{fill:#f68f1d;}</style></defs><g id="Layer_2" data-name="Layer 2"><g id="Layer_1-2" data-name="Layer 1"><path class="cls-1" d="M27.74,19.92c-3.8,0-6.18,0-8.57,0-1.91,0-3.21-1-3.2-3S17.31,14,19.22,14q7.4,0,14.79,0c2.42,0,3.6,1.29,3.6,3.68,0,4.77,0,9.53,0,14.3,0,2.08-.79,3.69-3,3.64s-2.94-1.71-2.91-3.77,0-4.27,0-6.42c-1.8-.46-2.32,1.09-3.14,1.89C21.18,34.62,13.89,42,6.55,49.27c-1.49,1.48-3.08,3.55-5.37,1.45C-1.39,48.36.8,46.62,2.41,45,10.52,37,18.65,28.92,27.74,19.92Z"/><path class="cls-1" d="M70.19,27.16a9.34,9.34,0,0,1-3.35,6.29c-2.2,1.93-5.76,1.92-6.92,5.53-.43,1.37-3.24,1-3.62-.45-.79-3.1-3.37-4-5.35-5.74-1.72-1.51-3.43-3.66-1.22-5.91s3.52-.6,5,1.36c2,2.66,5,1.85,7.66,1A2.8,2.8,0,0,0,64.19,26a3.42,3.42,0,0,0-2.88-3c-1.28-.23-2.63,0-3.94-.18a9.21,9.21,0,0,1-8.54-7c-1.14-4.09.33-7.52,3.83-9.83a7.2,7.2,0,0,0,3.16-3.93c.77-2.17,3.54-3,4.53-.66,1.2,2.81,3.38,4,5.4,5.72,1.74,1.5,3.38,3.69,1.17,5.91s-3.71.63-5-1.46-3.42-1.83-5.3-1.15a3,3,0,0,0-2.07,3.52c.58,2.6,2.57,3,4.9,3.07C66.24,17.32,70.33,21,70.19,27.16Z"/><path d="M31.69,57.47c0-3.29,0-6.58,0-9.87,0-2,.6-3.77,2.86-3.85s3.06,1.56,3.07,3.63V67.63c0,2.1-.85,3.67-3.09,3.58s-2.87-1.81-2.84-3.86C31.72,64.06,31.69,60.77,31.69,57.47Z"/><path d="M53.42,57.73c0,3.13,0,6.26,0,9.39,0,2.22-.52,4.13-3.1,4.08-2.25,0-2.86-1.78-2.86-3.83q0-9.87,0-19.76c0-2,.59-3.8,2.84-3.85,2.6-.06,3.11,1.91,3.1,4.1C53.41,51.15,53.42,54.44,53.42,57.73Z"/><path d="M69.23,57.5c0,3.29,0,6.59,0,9.88,0,2.05-.62,3.74-2.87,3.83S63.3,69.7,63.3,67.6q0-10.12,0-20.25c0-2.07.83-3.7,3.09-3.6s2.85,1.85,2.84,3.87C69.22,50.92,69.23,54.21,69.23,57.5Z"/><path d="M21.79,63c0,1.79.07,3.59,0,5.37A2.78,2.78,0,0,1,19,71.23a2.79,2.79,0,0,1-3.1-3c-.09-3.9-.07-7.81,0-11.72a2.75,2.75,0,0,1,2.73-2.89c1.94-.09,3,1.16,3.1,3C21.88,58.74,21.79,60.87,21.79,63Z"/><path d="M6,67.15c.09,2.19-.51,4.06-3,4.08-2.19,0-2.95-1.59-3-3.65s.5-4.08,3-4.09C5.27,63.47,6,65.12,6,67.15Z"/></g></g></svg>