<svg xmlns="http://www.w3.org/2000/svg" viewBox="0 0 79.12 73.23"><defs><style>.cls-1{fill:#fefefe;}.cls-2{fill:#fefdfd;}.cls-3{fill:#f68f1d;}.cls-4{fill:#fcf6f7;}.cls-5{fill:#fdf8f8;}</style></defs><g id="Layer_2" data-name="Layer 2"><g id="Layer_1-2" data-name="Layer 1"><path d="M39.34,73.2c-9,0-18.09,0-27.13,0C4.39,73.13.07,68.78,0,60.91Q0,41.4.05,21.9c0-7.54,4.42-11.86,12-12,4.27-.06,8.55-.09,12.82,0,2,.05,2.73-.41,2.95-2.65C28.31,2,30.61.15,35.8,0c2.47,0,4.93,0,7.4,0,5.22.1,7.68,2,8.08,7.18.21,2.7,1.39,2.76,3.37,2.72,4.28-.08,8.55-.09,12.83,0C74.47,10.08,79,14.4,79,21.32q.16,20.24,0,40.49C79,68.72,74.46,73.09,67.46,73.17,58.09,73.28,48.72,73.2,39.34,73.2Z"/><path class="cls-1" d="M39.68,15.85c8.87,0,17.75,0,26.63,0,5.22,0,6.79,1.56,6.81,6.7q.07,19,0,38c0,5.13-1.61,6.68-6.83,6.69-17.92,0-35.84,0-53.76,0-4.53,0-6.63-1.9-6.6-6.5q.12-19.24,0-38.5c0-4.61,2.09-6.53,6.62-6.48C21.59,15.93,30.63,15.85,39.68,15.85Z"/><path class="cls-2" d="M39.06,9.92c-1.46-.89-5,1.63-5.23-1.66C33.56,4,37.5,6.77,39.42,6a1.47,1.47,0,0,1,1,0c1.72.59,5-1.57,5,2S42.06,9.19,40.41,9.9A4.58,4.58,0,0,1,39.06,9.92Z"/><path class="cls-3" d="M59.32,37.67A3.12,3.12,0,0,1,62.25,39a13.15,13.15,0,0,1,1.09,2.19c4.86,11.45,4.81,10-5.5,14.26-3.93,1.62-7.87,3.2-11.77,4.89-2.83,1.23-4.53.5-5.73-2.42-5.12-12.36-5.25-10.14,5.78-14.82C50.62,41.18,55.17,39.37,59.32,37.67Z"/><path class="cls-3" d="M39.54,33.7a9.88,9.88,0,1,1-9.94-9.93A9.74,9.74,0,0,1,39.54,33.7Z"/><path class="cls-4" d="M46.54,53.77c-1.68.07-1.86-.94-2.27-1.86A1.3,1.3,0,0,1,45.06,50c3.93-1.66,7.9-3.22,11.82-4.9a1.32,1.32,0,0,1,2,.75c.43.84,1.13,2.09,0,2.61C54.7,50.38,50.44,52.1,46.54,53.77Z"/><path class="cls-5" d="M29.71,29.67c2.52.24,3.91,1.65,3.81,4.14a3.57,3.57,0,0,1-4.14,3.75,3.53,3.53,0,0,1-3.58-3.83C25.78,31.24,27.18,29.86,29.71,29.67Z"/></g></g></svg>